<svg width="16" height="22" viewBox="0 0 16 22" fill="none" xmlns="http://www.w3.org/2000/svg">
<path d="M3.08008 21.5029H12.9092C13.6969 21.5029 14.2949 21.2881 14.7031 20.8584C15.1185 20.4359 15.3262 19.7985 15.3262 18.9463V11.5449C15.3262 10.6999 15.1185 10.0661 14.7031 9.64355C14.2949 9.21387 13.6969 8.99902 12.9092 8.99902H3.08008C2.29232 8.99902 1.69076 9.21387 1.27539 9.64355C0.867188 10.0661 0.663086 10.6999 0.663086 11.5449V18.9463C0.663086 19.7985 0.867188 20.4359 1.27539 20.8584C1.69076 21.2881 2.29232 21.5029 3.08008 21.5029ZM3.13379 19.8809C2.90462 19.8809 2.72559 19.8092 2.59668 19.666C2.46777 19.5299 2.40332 19.3294 2.40332 19.0645V11.4268C2.40332 11.1618 2.46777 10.9613 2.59668 10.8252C2.72559 10.6891 2.90462 10.6211 3.13379 10.6211H12.8555C13.0918 10.6211 13.2708 10.6891 13.3926 10.8252C13.5215 10.9613 13.5859 11.1618 13.5859 11.4268V19.0645C13.5859 19.3294 13.5215 19.5299 13.3926 19.666C13.2708 19.8092 13.0918 19.8809 12.8555 19.8809H3.13379ZM2.54297 9.82617H4.25098V6.20605C4.25098 5.30371 4.42285 4.5446 4.7666 3.92871C5.11035 3.31283 5.5651 2.84733 6.13086 2.53223C6.70378 2.21712 7.32324 2.05957 7.98926 2.05957C8.66244 2.05957 9.2819 2.21712 9.84766 2.53223C10.4206 2.84733 10.8789 3.31283 11.2227 3.92871C11.5736 4.5446 11.749 5.30371 11.749 6.20605V9.82617H13.4463V6.43164C13.4463 5.08529 13.1849 3.9681 12.6621 3.08008C12.1465 2.19206 11.4733 1.52962 10.6426 1.09277C9.81185 0.655924 8.92741 0.4375 7.98926 0.4375C7.05827 0.4375 6.17741 0.655924 5.34668 1.09277C4.51595 1.52962 3.83919 2.19206 3.31641 3.08008C2.80078 3.9681 2.54297 5.08529 2.54297 6.43164V9.82617Z" fill="white"/>
</svg>
